<svg width="40" height="40" viewBox="0 0 40 40" fill="none" xmlns="http://www.w3.org/2000/svg">
<path d="M20 0C8.96 0 0 8.96 0 20C0 31.04 8.96 40 20 40C31.04 40 40 31.04 40 20C40 8.96 31.04 0 20 0Z" fill="#CBCED9"/>
<path d="M35.6091 32.5C31.9427 27.9285 26.311 25 19.9994 25C13.6878 25 8.05599 27.9285 4.38965 32.5C8.05599 37.0715 13.6878 40 19.9994 40C26.311 40 31.9427 37.0715 35.6091 32.5Z" fill="#E9EBF0"/>
<path d="M20 5C24.1501 5 27.5001 8.35002 27.5001 12.5C27.5001 16.6501 24.1501 20.0001 20 20.0001C15.85 20.0001 12.5 16.6501 12.5 12.5C12.5 8.35002 15.85 5 20 5Z" fill="#E9EBF0"/>
</svg>
