<svg version="1.1" id="Capa_1" xmlns="http://www.w3.org/2000/svg" xmlns:xlink="http://www.w3.org/1999/xlink" x="0px" y="0px" viewBox="0 0 512 512" style="enable-background:new 0 0 512 512;" xml:space="preserve" fill="#1260c5"><g><g><path d="M256,31C114.841,31,0,145.392,0,286c0,14.582,0,105.386,0,120c0,24.813,20.187,45,45,45h17.58 c6.192,17.459,22.865,30,42.42,30h30c8.284,0,15-6.716,15-15V286c0-8.284-6.716-15-15-15h-30c-19.555,0-36.228,12.541-42.42,30H45 c-5.259,0-10.305,0.915-15,2.58V286C30,161.934,131.383,61,256,61s226,100.934,226,225v17.58c-4.695-1.665-9.741-2.58-15-2.58 h-17.58c-6.192-17.459-22.865-30-42.42-30h-30c-8.284,0-15,6.716-15,15v180c0,8.284,6.716,15,15,15h30 c19.555,0,36.228-12.541,42.42-30H467c24.813,0,45-20.187,45-45c0-14.582,0-105.386,0-120C512,145.393,397.159,31,256,31z M90,316 c0-8.271,6.729-15,15-15h15v150h-15c-8.271,0-15-6.729-15-15V316z M45,331h15v90H45c-8.271,0-15-6.729-15-15v-60 C30,337.729,36.729,331,45,331z M422,436c0,8.271-6.729,15-15,15h-15V301h15c8.271,0,15,6.729,15,15V436z M482,406 c0,8.271-6.729,15-15,15h-15v-90h15c8.271,0,15,6.729,15,15V406z"></path></g></g></svg>