<!-- icon666.com - MILLIONS vector ICONS FREE --><svg version="1.1" id="Capa_1" xmlns="http://www.w3.org/2000/svg" xmlns:xlink="http://www.w3.org/1999/xlink" x="0px" y="0px" viewBox="0 0 512.057 512.057" style="enable-background:new 0 0 512.057 512.057;" xml:space="preserve"><g><g><path d="M511.611,111.233c-0.96-4.16-3.584-7.776-7.264-10.016c-74.56-45.248-160.448-69.184-248.32-69.184 c-37.12,0-73.888,4.224-109.28,12.576c-8.608,2.048-13.92,10.656-11.872,19.264c2.016,8.608,10.4,13.888,19.264,11.904 c105.824-24.96,223.392-9.024,319.552,44.64L370.203,284.961c-4.736,7.488-2.496,17.344,4.992,22.048 c2.656,1.664,5.6,2.464,8.544,2.464c5.312,0,10.496-2.656,13.536-7.488l112.32-178.56 C511.867,119.809,512.635,115.425,511.611,111.233z"></path></g></g><g><g><path d="M507.355,484.737l-480-480.032c-6.24-6.24-16.384-6.24-22.624,0s-6.24,16.384,0,22.624l49.536,49.536 c-16.384,7.552-32.192,15.552-46.624,24.416c-3.648,2.24-6.24,5.824-7.232,10.016c-0.96,4.16-0.224,8.544,2.048,12.16l240,381.12 c2.944,4.64,8.064,7.456,13.568,7.456c5.504,0,10.592-2.816,13.536-7.456l82.112-130.24l133.024,133.024 c3.136,3.104,7.232,4.672,11.328,4.672s8.192-1.568,11.328-4.672C513.595,501.121,513.595,490.977,507.355,484.737z M256.027,466.017L38.363,120.353c12.576-7.008,26.304-13.152,40.224-19.136l249.888,249.888L256.027,466.017z"></path></g></g></svg>